<svg width="20" height="15" viewBox="0 0 20 15" fill="none" xmlns="http://www.w3.org/2000/svg">
<path d="M13.2928 7.50393C13.2928 9.05921 11.8212 10.316 10 10.316C8.17885 10.316 6.7072 9.05921 6.7072 7.50393C6.7072 5.94864 8.17885 4.69184 10 4.69184C11.8212 4.69184 13.2928 5.94864 13.2928 7.50393Z" stroke="#5A5F5C" stroke-width="1.5" stroke-linecap="round" stroke-linejoin="round"/>
<path d="M10 14C13.2468 14 16.2729 12.3662 18.3792 9.53837C19.2069 8.43082 19.2069 6.56918 18.3792 5.46163C16.2729 2.63384 13.2468 1 10 1C6.75319 1 3.72713 2.63384 1.62085 5.46163C0.793051 6.56918 0.793051 8.43082 1.62085 9.53837C3.72713 12.3662 6.75319 14 10 14Z" stroke="#5A5F5C" stroke-width="1.5" stroke-linecap="round" stroke-linejoin="round"/>
</svg>
