<svg width="19" height="19" viewBox="0 0 19 19" fill="none" xmlns="http://www.w3.org/2000/svg">
<g clip-path="url(#clip0_334_1397)">
<path fill-rule="evenodd" clip-rule="evenodd" d="M3.39287 0C2.85297 0 2.33517 0.214476 1.9534 0.596247C1.57164 0.978017 1.35716 1.49582 1.35716 2.03571V14.1399L0.0348361 18.1069C-0.0434827 18.3418 0.012426 18.6007 0.180702 18.7824C0.348978 18.9642 0.602892 19.0398 0.843163 18.9798L6.19069 17.6429H16.9643C17.5042 17.6429 18.022 17.4284 18.4038 17.0467C18.7856 16.6649 19 16.147 19 15.6071V2.03571C19 1.4958 18.7856 0.978017 18.4038 0.596247C18.022 0.214476 17.5042 0 16.9643 0H3.39287ZM7.23782 6.97548C6.91056 7.51412 6.72209 8.1464 6.72209 8.82272C6.72209 10.7902 8.31709 12.3852 10.2846 12.3852C10.9609 12.3852 11.5932 12.1968 12.1318 11.8695L7.23782 6.97548ZM6.50546 5.1656C5.58941 6.11203 5.02566 7.40153 5.02566 8.82272C5.02566 11.7271 7.38017 14.0816 10.2846 14.0816C11.7056 14.0816 12.9949 13.5181 13.9414 12.6022C13.9635 12.5841 13.9851 12.5647 14.0058 12.5439C14.0265 12.5232 14.046 12.5017 14.0641 12.4795C14.9799 11.5331 15.5435 10.2437 15.5435 8.82272C15.5435 5.91828 13.189 3.56379 10.2846 3.56379C8.86342 3.56379 7.5739 4.12752 6.62748 5.04358C6.60539 5.06161 6.584 5.08093 6.5634 5.10153C6.54281 5.12212 6.5235 5.1435 6.50546 5.1656ZM8.43737 5.77593L13.3314 10.6699C13.6587 10.1313 13.8471 9.49902 13.8471 8.82272C13.8471 6.8552 12.2521 5.26022 10.2846 5.26022C9.60829 5.26022 8.97599 5.44867 8.43737 5.77593Z" fill="#5A5F5C"/>
</g>
<defs>
<clipPath id="clip0_334_1397">
<rect width="19" height="19" fill="white"/>
</clipPath>
</defs>
</svg>
