<svg width="20" height="20" viewBox="0 0 20 20" fill="none" xmlns="http://www.w3.org/2000/svg">
<path fill-rule="evenodd" clip-rule="evenodd" d="M5.19825 0.0922092C5.75063 -0.148481 6.39616 0.0982709 6.64008 0.643345C6.884 1.18842 6.63394 1.8254 6.08155 2.06609C5.56251 2.29226 5.10068 2.66145 4.76105 3.16395C4.42601 3.65967 3.74716 3.79351 3.24478 3.46292C2.74242 3.1323 2.60677 2.46243 2.94182 1.96672C3.51898 1.11277 4.31002 0.479231 5.19825 0.0922092ZM3.45113 17.937L2.80013 17.206C2.12678 16.4501 1.59831 15.5795 1.24049 14.637L0.110285 11.6599C-0.154787 10.9616 0.0689609 10.1744 0.663337 9.71403C1.55484 9.02352 2.86702 9.3489 3.32181 10.3732L4.22574 12.4092L4.20253 12.4947C4.70815 12.6284 5.88862 13.1765 6.45768 14.1491C6.70928 14.5791 7.26653 14.7264 7.70231 14.4781C8.1381 14.2299 8.28741 13.68 8.0358 13.25C7.13125 11.704 5.42715 10.957 4.67443 10.7579L6.65085 3.47947C6.83705 2.79376 7.55133 2.38682 8.24624 2.57056C8.94115 2.75431 9.35353 3.45912 9.16734 4.14483L7.81879 9.11102C7.7257 9.45388 7.93189 9.80628 8.27933 9.89815C8.62679 9.99001 8.98391 9.78655 9.07702 9.44371L10.9313 2.61514C11.1175 1.92945 11.8317 1.52252 12.5266 1.70626C13.2215 1.88999 13.6339 2.5948 13.4477 3.28048L11.5934 10.109C11.5003 10.4519 11.7065 10.8043 12.054 10.8962C12.4014 10.988 12.7586 10.7846 12.8517 10.4417L13.8458 6.78065C14.0408 6.0624 14.793 5.63985 15.5185 5.841C16.2316 6.03873 16.651 6.76562 16.4593 7.47167L13.6003 18.0002C13.4077 18.7094 12.9375 19.3141 12.2931 19.6812C11.7198 19.9777 11.0609 20.0711 10.4262 19.9458L5.11993 18.8985C4.47064 18.7704 3.88332 18.432 3.45113 17.937ZM17.4655 2.62451C17.9529 2.27281 18.6369 2.3776 18.9934 2.85858C19.5666 3.63198 19.9306 4.57093 19.9977 5.59523C20.0367 6.18984 19.5797 6.70304 18.9772 6.7415C18.3745 6.77996 17.8545 6.3291 17.8156 5.73449C17.7761 5.13174 17.5631 4.58416 17.2283 4.13221C16.8718 3.65123 16.9781 2.97621 17.4655 2.62451Z" fill="#5A5F5C"/>
</svg>
