<svg width="16" height="25" viewBox="0 0 16 25" fill="none" xmlns="http://www.w3.org/2000/svg">
<g id="&#235;&#167;&#136;&#236;&#157;&#180;&#237;&#129;&#172; &#236;&#149;&#132;&#236;&#157;&#180;&#236;&#189;&#152;">
<path id="Subtract" fill-rule="evenodd" clip-rule="evenodd" d="M1 10.5C0.447715 10.5 0 10.9477 0 11.5V12.5C0 16.9183 3.58172 20.5 8 20.5C12.4183 20.5 16 16.9183 16 12.5V11.5C16 10.9477 15.5523 10.5 15 10.5C14.4477 10.5 14 10.9477 14 11.5V12.5C14 15.8137 11.3137 18.5 8 18.5C4.68629 18.5 2 15.8137 2 12.5V11.5C2 10.9477 1.55228 10.5 1 10.5Z" fill="#5A5F5C"/>
<rect id="Rectangle 60" x="4" y="0.5" width="8" height="16" rx="4" fill="#5A5F5C"/>
<rect id="Rectangle 64" x="7" y="19.5" width="2" height="4" fill="#5A5F5C"/>
<path id="Rectangle 65" d="M5 24C5 23.1716 5.67157 22.5 6.5 22.5H9.33333C10.2538 22.5 11 23.2462 11 24.1667C11 24.3508 10.8508 24.5 10.6667 24.5H5.5C5.22386 24.5 5 24.2761 5 24Z" fill="#5A5F5C"/>
<path id="Polygon 3" d="M6.01527 5.27709L11.2922 8.26098L6.06964 11.339L6.01527 5.27709Z" fill="#D9D9D9"/>
</g>
</svg>
